<?xml version="1.0" encoding="UTF-8"?>
<svg id="Layer_1" data-name="Layer 1" xmlns="http://www.w3.org/2000/svg" viewBox="0 0 1024.5 1100.09">
  <defs>
    <style>
      .cls-1 {
        font-size: 33px;
      }

      .cls-1, .cls-2, .cls-3, .cls-4 {
        font-family: MyriadPro-Regular, 'Myriad Pro';
      }

      .cls-1, .cls-4, .cls-5 {
        fill: #2020f2;
      }

      .cls-6 {
        letter-spacing: -.01em;
      }

      .cls-7 {
        letter-spacing: 0em;
      }

      .cls-2 {
        font-size: 16px;
      }

      .cls-8 {
        fill: #fff;
      }

      .cls-9 {
        letter-spacing: -.02em;
      }

      .cls-10 {
        fill: blue;
      }

      .cls-11 {
        letter-spacing: 0em;
      }

      .cls-12 {
        letter-spacing: -.01em;
      }

      .cls-13 {
        letter-spacing: -.01em;
      }

      .cls-14 {
        letter-spacing: 0em;
      }

      .cls-15 {
        letter-spacing: -.03em;
      }

      .cls-16 {
        fill: #f2f2f2;
      }

      .cls-17 {
        letter-spacing: 0em;
      }

      .cls-18 {
        letter-spacing: .01em;
      }

      .cls-3 {
        font-size: 21px;
      }

      .cls-19 {
        letter-spacing: 0em;
      }

      .cls-4 {
        font-size: 22px;
      }

      .cls-20 {
        letter-spacing: 0em;
      }

      .cls-21 {
        letter-spacing: 0em;
      }

      .cls-22 {
        letter-spacing: 0em;
      }

      .cls-23 {
        letter-spacing: .01em;
      }

      .cls-24 {
        letter-spacing: 0em;
      }

      .cls-25 {
        letter-spacing: 0em;
      }

      .cls-26 {
        letter-spacing: 0em;
      }

      .cls-27 {
        letter-spacing: 0em;
      }

      .cls-28 {
        letter-spacing: 0em;
      }

      .cls-29 {
        letter-spacing: 0em;
      }
    </style>
  </defs>
  <rect class="cls-16" x=".5" y="97.38" width="1024" height="251.23"/>
  <rect class="cls-8" x=".5" y="348.62" width="1024" height="250.45"/>
  <rect class="cls-8" y="840.94" width="1024" height="259.15"/>
  <rect class="cls-16" y="597" width="1024" height="248"/>
  <rect class="cls-8" width="1024" height="97.91"/>
  <g>
    <rect class="cls-8" x="567.94" y="105.47" width="385.13" height="235.06"/>
    <path d="M952.06,106.47v233.06h-383.13V106.47h383.13M954.06,104.47h-387.13v237.06h387.13V104.47h0Z"/>
  </g>
  <g>
    <rect class="cls-8" x="63.3" y="355.06" width="385.13" height="235.06"/>
    <path d="M447.43,356.06v233.06H64.3v-233.06h383.13M449.43,354.06H62.3v237.06h387.13v-237.06h0Z"/>
  </g>
  <text class="cls-3" transform="translate(60.79 213.66)"><tspan class="cls-12" x="0" y="0">L</tspan><tspan x="9.62" y="0">o</tspan><tspan class="cls-19" x="21.15" y="0">r</tspan><tspan x="27.8" y="0">em ipsum dolor sit ame</tspan><tspan class="cls-7" x="232.97" y="0">t</tspan><tspan x="239.86" y="0">, </tspan><tspan class="cls-26" x="0" y="25.2">c</tspan><tspan x="9.28" y="25.2">onse</tspan><tspan class="cls-18" x="51.3" y="25.2">c</tspan><tspan class="cls-26" x="60.98" y="25.2">t</tspan><tspan x="67.81" y="25.2">etuer adipiscing eli</tspan><tspan class="cls-25" x="233.31" y="25.2">t</tspan><tspan x="240.19" y="25.2">, sed diam </tspan><tspan x="0" y="50.4">nonum</tspan><tspan class="cls-6" x="63.92" y="50.4">m</tspan><tspan x="81.17" y="50.4">y nibh euismod tincidu</tspan><tspan class="cls-29" x="282.05" y="50.4">n</tspan><tspan x="293.62" y="50.4">t ut </tspan><tspan class="cls-6" x="0" y="75.6">f</tspan><tspan x="5.86" y="75.6">eu</tspan><tspan class="cls-26" x="27.95" y="75.6">g</tspan><tspan x="39.56" y="75.6">i</tspan><tspan class="cls-29" x="44.48" y="75.6">a</tspan><tspan x="54.52" y="75.6">t nibh euismod tincidu</tspan><tspan class="cls-29" x="252.46" y="75.6">n</tspan><tspan x="264.03" y="75.6">t ut </tspan></text>
  <text class="cls-1" transform="translate(59.79 171.68)"><tspan class="cls-12" x="0" y="0">L</tspan><tspan x="15.11" y="0">o</tspan><tspan class="cls-28" x="33.23" y="0">r</tspan><tspan x="43.69" y="0">em ipsum </tspan></text>
  <text class="cls-4" transform="translate(326.98 57.9)"><tspan x="0" y="0">home</tspan></text>
  <text class="cls-4" transform="translate(403.79 57.9)"><tspan class="cls-20" x="0" y="0">c</tspan><tspan x="9.72" y="0">o</tspan><tspan class="cls-24" x="21.8" y="0">n</tspan><tspan x="33.92" y="0">t</tspan><tspan class="cls-24" x="41.21" y="0">a</tspan><tspan class="cls-21" x="51.72" y="0">t</tspan><tspan x="58.87" y="0">o</tspan></text>
  <text class="cls-4" transform="translate(497.86 57.9)"><tspan x="0" y="0">desenhos</tspan></text>
  <text class="cls-4" transform="translate(609.3 59.81)"><tspan x="0" y="0">mais in</tspan><tspan class="cls-13" x="64.83" y="0">f</tspan><tspan x="70.97" y="0">o</tspan><tspan class="cls-17" x="83.05" y="0">r</tspan><tspan x="90.33" y="0">ma</tspan><tspan class="cls-20" x="119.28" y="0">ç</tspan><tspan x="129.01" y="0">ões</tspan></text>
  <text class="cls-3" transform="translate(711.79 464.4)"><tspan class="cls-12" x="0" y="0">L</tspan><tspan x="9.62" y="0">o</tspan><tspan class="cls-19" x="21.15" y="0">r</tspan><tspan x="27.8" y="0">em ipsum dolor sit ame</tspan><tspan class="cls-7" x="232.97" y="0">t</tspan><tspan x="239.86" y="0">, </tspan><tspan class="cls-26" x="-84.31" y="25.2">c</tspan><tspan x="-75.03" y="25.2">onse</tspan><tspan class="cls-18" x="-33.01" y="25.2">c</tspan><tspan class="cls-26" x="-23.33" y="25.2">t</tspan><tspan x="-16.5" y="25.2">etuer adipiscing eli</tspan><tspan class="cls-25" x="148.99" y="25.2">t</tspan><tspan x="155.88" y="25.2">, sed diam </tspan><tspan x="-79.34" y="50.4">nonum</tspan><tspan class="cls-6" x="-15.41" y="50.4">m</tspan><tspan x="1.83" y="50.4">y nibh euismod tincidu</tspan><tspan class="cls-29" x="202.71" y="50.4">n</tspan><tspan x="214.28" y="50.4">t ut </tspan><tspan class="cls-6" x="-49.75" y="75.6">f</tspan><tspan x="-43.89" y="75.6">eu</tspan><tspan class="cls-26" x="-21.8" y="75.6">g</tspan><tspan x="-10.18" y="75.6">i</tspan><tspan class="cls-29" x="-5.27" y="75.6">a</tspan><tspan x="4.77" y="75.6">t nibh euismod tincidu</tspan><tspan class="cls-29" x="202.71" y="75.6">n</tspan><tspan x="214.28" y="75.6">t ut </tspan></text>
  <text class="cls-2" transform="translate(418.36 1064.96)"><tspan class="cls-22" x="0" y="0">C</tspan><tspan class="cls-14" x="9.23" y="0">r</tspan><tspan x="14.53" y="0">iado por </tspan><tspan class="cls-15" x="73.69" y="0">P</tspan><tspan class="cls-27" x="81.79" y="0">a</tspan><tspan x="89.44" y="0">t</tspan><tspan class="cls-14" x="94.73" y="0">r</tspan><tspan class="cls-11" x="100.03" y="0">ícia </tspan><tspan class="cls-22" x="125.79" y="0">A</tspan><tspan x="135.53" y="0">bi</tspan><tspan class="cls-9" x="148.38" y="0">b</tspan><tspan x="157.1" y="0">, 2025</tspan></text>
  <text class="cls-3" transform="translate(330.55 698.66)"><tspan class="cls-12" x="0" y="0">L</tspan><tspan x="9.62" y="0">o</tspan><tspan class="cls-19" x="21.15" y="0">r</tspan><tspan x="27.8" y="0">em ipsum dolor sit ame</tspan><tspan class="cls-7" x="232.97" y="0">t</tspan><tspan x="239.86" y="0">, </tspan><tspan class="cls-26" x="248.66" y="0">c</tspan><tspan x="257.94" y="0">onse</tspan><tspan class="cls-23" x="299.96" y="0">c</tspan><tspan class="cls-26" x="309.64" y="0">t</tspan><tspan x="316.47" y="0">etuer </tspan><tspan x="-33.86" y="25.2">adipiscing eli</tspan><tspan class="cls-25" x="80.75" y="25.2">t</tspan><tspan x="87.64" y="25.2">, sed diam nonum</tspan><tspan class="cls-6" x="244.34" y="25.2">m</tspan><tspan x="261.58" y="25.2">y nibh euismod </tspan><tspan x="-19.13" y="50.4">tincidu</tspan><tspan class="cls-29" x="42.13" y="50.4">n</tspan><tspan x="53.7" y="50.4">t ut </tspan><tspan class="cls-6" x="88.07" y="50.4">f</tspan><tspan x="93.93" y="50.4">eu</tspan><tspan class="cls-26" x="116.02" y="50.4">g</tspan><tspan x="127.64" y="50.4">i</tspan><tspan class="cls-29" x="132.55" y="50.4">a</tspan><tspan x="142.59" y="50.4">t nibh euismod tincidu</tspan><tspan class="cls-29" x="340.53" y="50.4">n</tspan><tspan x="352.1" y="50.4">t ut </tspan></text>
  <text class="cls-1" transform="translate(775.98 422.42)"><tspan class="cls-12" x="0" y="0">L</tspan><tspan x="15.11" y="0">o</tspan><tspan class="cls-28" x="33.23" y="0">r</tspan><tspan x="43.69" y="0">em ipsum </tspan></text>
  <g>
    <path class="cls-8" d="M855.75,118.75v190.5h-190.5V118.75h190.5ZM705.69,173.47c-1.42,1.35-2.49,3.79-2.67,5.75.3,23.87-.53,47.88.42,71.68.71,2.36,3.4,5,5.77,5.66,34.04.56,68.29.39,102.35.08,3.5-1.17,6.08-4.13,6.42-7.87v-69.56c-.33-4.02-3.73-7.73-7.78-8.1h-99.4c-1.7.15-3.89,1.18-5.11,2.35Z"/>
    <path d="M705.69,173.47c1.23-1.16,3.41-2.2,5.11-2.35h99.4c4.05.36,7.45,4.07,7.78,8.1v69.56c-.34,3.74-2.93,6.69-6.42,7.87-34.06.31-68.31.47-102.35-.08-2.37-.66-5.06-3.31-5.77-5.66-.95-23.8-.12-47.81-.42-71.68.18-1.96,1.25-4.4,2.67-5.75ZM814.16,242.26v-63.34c0-1.17-2.25-3.6-3.55-3.75l-100.28-.07c-1.24.33-3.48,2.62-3.48,3.82v43.02c1.66-1.44,3.25-3.01,4.77-4.6,6.58-6.87,15.06-21.39,24.92-10.65,6.47,7.05,12.03,16.11,18.58,23.01,2.07,2.19,4.15,3.4,7.2,1.82,5.81-3.02,12.39-10.65,18.29-13.46,3.27-1.55,6.97-1.17,9.75,1.17l23.81,23.02ZM727.71,206.77c-1.52.31-4.42,3.6-5.64,4.84-5.18,5.28-9.93,11.03-15.17,16.27l-.04,20.86c.3,2.18,2.32,4.23,4.56,4.33h98.14c2.38.1,5.55-3.44,4.29-5.59l-25.73-25.07c-1.98-1.53-3.56-1.92-5.89-.79-5.69,2.76-12.14,10.03-17.92,13.19-3.96,2.17-7.79,1.7-11.12-1.28l-20.47-25.25c-1.43-1.33-3.06-1.9-5.02-1.5Z"/>
    <path class="cls-8" d="M814.16,242.26l-23.81-23.02c-2.77-2.34-6.47-2.72-9.75-1.17-5.91,2.8-12.48,10.43-18.29,13.46-3.05,1.59-5.12.37-7.2-1.82-6.55-6.9-12.11-15.97-18.58-23.01-9.86-10.74-18.34,3.78-24.92,10.65-1.52,1.59-3.11,3.16-4.77,4.6v-43.02c0-1.2,2.25-3.49,3.48-3.82l100.28.07c1.31.15,3.55,2.58,3.55,3.75v63.34ZM795.63,199.92c9.86-10.23-6.41-24.99-15.61-14.18-8.81,10.35,6.37,23.76,15.61,14.18Z"/>
    <path class="cls-8" d="M727.71,206.77c1.96-.41,3.6.17,5.02,1.5l20.47,25.25c3.33,2.98,7.16,3.45,11.12,1.28,5.79-3.16,12.23-10.43,17.92-13.19,2.33-1.13,3.91-.74,5.89.79l25.73,25.07c1.26,2.15-1.91,5.69-4.29,5.59h-98.14c-2.24-.1-4.26-2.15-4.56-4.33l.04-20.86c5.23-5.24,9.99-10.98,15.17-16.27,1.22-1.24,4.12-4.52,5.64-4.84Z"/>
    <path d="M795.63,199.92c-9.24,9.58-24.42-3.82-15.61-14.18,9.2-10.81,25.47,3.95,15.61,14.18ZM786.45,186.14c-4.91.85-6.68,7.51-3.26,11.05,2.91,3.01,8.2,2.55,10.39-1.06,3.17-5.21-1.12-11.02-7.13-9.99Z"/>
    <path class="cls-8" d="M786.45,186.14c6.01-1.03,10.3,4.77,7.13,9.99-2.19,3.61-7.48,4.08-10.39,1.06-3.42-3.53-1.65-10.2,3.26-11.05Z"/>
  </g>
  <g>
    <path class="cls-8" d="M358.75,371.25v190.5h-190.5v-190.5h190.5ZM208.69,425.97c-1.42,1.35-2.49,3.79-2.67,5.75.3,23.87-.53,47.88.42,71.68.71,2.36,3.4,5,5.77,5.66,34.04.56,68.29.39,102.35.08,3.5-1.17,6.08-4.13,6.42-7.87v-69.56c-.33-4.02-3.73-7.73-7.78-8.1h-99.4c-1.7.15-3.89,1.18-5.11,2.35Z"/>
    <path d="M208.69,425.97c1.23-1.16,3.41-2.2,5.11-2.35h99.4c4.05.36,7.45,4.07,7.78,8.1v69.56c-.34,3.74-2.93,6.69-6.42,7.87-34.06.31-68.31.47-102.35-.08-2.37-.66-5.06-3.31-5.77-5.66-.95-23.8-.12-47.81-.42-71.68.18-1.96,1.25-4.4,2.67-5.75ZM317.16,494.76v-63.34c0-1.17-2.25-3.6-3.55-3.75l-100.28-.07c-1.24.33-3.48,2.62-3.48,3.82v43.02c1.66-1.44,3.25-3.01,4.77-4.6,6.58-6.87,15.06-21.39,24.92-10.65,6.47,7.05,12.03,16.11,18.58,23.01,2.07,2.19,4.15,3.4,7.2,1.82,5.81-3.02,12.39-10.65,18.29-13.46,3.27-1.55,6.97-1.17,9.75,1.17l23.81,23.02ZM230.71,459.27c-1.52.31-4.42,3.6-5.64,4.84-5.18,5.28-9.93,11.03-15.17,16.27l-.04,20.86c.3,2.18,2.32,4.23,4.56,4.33h98.14c2.38.1,5.55-3.44,4.29-5.59l-25.73-25.07c-1.98-1.53-3.56-1.92-5.89-.79-5.69,2.76-12.14,10.03-17.92,13.19-3.96,2.17-7.79,1.7-11.12-1.28l-20.47-25.25c-1.43-1.33-3.06-1.9-5.02-1.5Z"/>
    <path class="cls-8" d="M317.16,494.76l-23.81-23.02c-2.77-2.34-6.47-2.72-9.75-1.17-5.91,2.8-12.48,10.43-18.29,13.46-3.05,1.59-5.12.37-7.2-1.82-6.55-6.9-12.11-15.97-18.58-23.01-9.86-10.74-18.34,3.78-24.92,10.65-1.52,1.59-3.11,3.16-4.77,4.6v-43.02c0-1.2,2.25-3.49,3.48-3.82l100.28.07c1.31.15,3.55,2.58,3.55,3.75v63.34ZM298.63,452.42c9.86-10.23-6.41-24.99-15.61-14.18-8.81,10.35,6.37,23.76,15.61,14.18Z"/>
    <path class="cls-8" d="M230.71,459.27c1.96-.41,3.6.17,5.02,1.5l20.47,25.25c3.33,2.98,7.16,3.45,11.12,1.28,5.79-3.16,12.23-10.43,17.92-13.19,2.33-1.13,3.91-.74,5.89.79l25.73,25.07c1.26,2.15-1.91,5.69-4.29,5.59h-98.14c-2.24-.1-4.26-2.15-4.56-4.33l.04-20.86c5.23-5.24,9.99-10.98,15.17-16.27,1.22-1.24,4.12-4.52,5.64-4.84Z"/>
    <path d="M298.63,452.42c-9.24,9.58-24.42-3.82-15.61-14.18,9.2-10.81,25.47,3.95,15.61,14.18ZM289.45,438.63c-4.91.85-6.68,7.51-3.26,11.05,2.91,3.01,8.2,2.55,10.39-1.06,3.17-5.21-1.12-11.02-7.13-9.99Z"/>
    <path class="cls-8" d="M289.45,438.63c6.01-1.03,10.3,4.77,7.13,9.99-2.19,3.61-7.48,4.08-10.39,1.06-3.42-3.53-1.65-10.2,3.26-11.05Z"/>
  </g>
  <rect class="cls-10" x="481.5" y="938.75" width="61" height="61"/>
  <rect class="cls-5" x="62.3" y="20.25" width="184.78" height="61"/>
</svg>